<svg width="16" height="16" viewBox="0 0 16 16" fill="none" xmlns="http://www.w3.org/2000/svg">
<g clip-path="url(#clip0)">
<path fill-rule="evenodd" clip-rule="evenodd" d="M16.0059 8.00295C16.0059 3.58338 12.4225 0 8.00295 0C3.58338 0 0 3.58338 0 8.00295C0 11.9971 2.92615 15.3081 6.75262 15.9092V10.3169H4.72006V8.00295H6.75262V6.23938C6.75262 4.23385 7.94782 3.12529 9.77551 3.12529C10.6511 3.12529 11.5672 3.28172 11.5672 3.28172V5.25126H10.5577C9.56394 5.25126 9.25329 5.868 9.25329 6.5016V8.00289H11.4726L11.1181 10.3168H9.25323V15.9091C13.0797 15.3092 16.0058 11.9982 16.0058 8.00289L16.0059 8.00295Z" fill="#1977F3"/>
<path fill-rule="evenodd" clip-rule="evenodd" d="M11.1182 10.3168L11.4727 8.00288H9.25335V6.50159C9.25335 5.8691 9.56283 5.25125 10.5577 5.25125H11.5673V3.28171C11.5673 3.28171 10.6512 3.12528 9.77557 3.12528C7.94788 3.12528 6.75268 4.23273 6.75268 6.23937V8.00294H4.72012V10.3169H6.75268V15.9092C7.16006 15.9732 7.5776 16.0059 8.00302 16.0059C8.42843 16.0059 8.84597 15.9721 9.25335 15.9092V10.3169H11.1182L11.1182 10.3168Z" fill="#FEFEFE"/>
</g>
<defs>
<clipPath id="clip0">
<rect width="16" height="16" fill="white"/>
</clipPath>
</defs>
</svg>
