<svg width="16" height="16" viewBox="0 0 16 16" fill="none" xmlns="http://www.w3.org/2000/svg">
<g clip-path="url(#clip0)">
<path d="M16 8.18372C16 7.63991 15.955 7.09315 15.859 6.55815H8.16045V9.6388H12.5691C12.3861 10.6324 11.7983 11.5113 10.9376 12.0698V14.0687H13.5678C15.1123 12.6754 16 10.6177 16 8.18372Z" fill="#4285F4"/>
<path d="M8.16042 16C10.3617 16 12.2182 15.2916 13.5707 14.0687L10.9405 12.0698C10.2088 12.5578 9.26407 12.8341 8.16342 12.8341C6.03408 12.8341 4.22865 11.4261 3.58085 9.53298H0.866699V11.5936C2.25227 14.2951 5.07438 16 8.16042 16Z" fill="#34A853"/>
<path d="M3.5779 9.53298C3.23601 8.53941 3.23601 7.46354 3.5779 6.46997V4.40934H0.866749C-0.29089 6.66986 -0.29089 9.3331 0.866749 11.5936L3.5779 9.53298Z" fill="#FBBC04"/>
<path d="M8.16042 3.16591C9.32406 3.14827 10.4487 3.57744 11.2914 4.36524L13.6217 2.08121C12.1462 0.723136 10.1878 -0.0235114 8.16042 5.05307e-06C5.07438 5.05307e-06 2.25227 1.70495 0.866699 4.40934L3.57785 6.46997C4.22265 4.57395 6.03109 3.16591 8.16042 3.16591Z" fill="#EA4335"/>
</g>
<defs>
<clipPath id="clip0">
<rect width="16" height="16" fill="white"/>
</clipPath>
</defs>
</svg>
