<svg width="134" height="40" viewBox="0 0 134 40" fill="none" xmlns="http://www.w3.org/2000/svg">
<path fill-rule="evenodd" clip-rule="evenodd" d="M99.3417 21.1942C97.7198 21.1942 96.587 19.8648 96.587 18.0107C96.587 16.165 97.7198 14.8273 99.3417 14.8273C100.976 14.8273 102.074 16.0776 102.074 18.1587C102.074 20.24 100.976 21.1942 99.3417 21.1942ZM94.3123 29.3639C95.6284 29.9131 97.3613 30.2989 98.9551 30.2989C101.447 30.2989 103.068 29.6407 104.249 28.3373C105.236 27.2485 105.736 25.7346 105.736 23.8374V11.738H102.074V13.348C101.327 12.4309 100.113 11.5831 98.3691 11.5831C96.3957 11.5831 92.7369 13.0816 92.7369 18.1125C92.7369 23.1411 96.3798 24.4656 98.464 24.4656C99.9741 24.4656 101.226 23.998 102.123 22.9555L102.124 23.6584C102.124 25.4529 101.012 26.7366 99.0939 26.7366C97.1049 26.7366 95.3383 26.0064 95.3383 26.0064L94.3123 29.3639Z" fill="#250D53"/>
<path fill-rule="evenodd" clip-rule="evenodd" d="M53.5141 25.0389H65.4293V21.3721H57.7142V8.57144H53.5141V25.0389Z" fill="#250D53"/>
<path fill-rule="evenodd" clip-rule="evenodd" d="M119.383 11.738H115.725L115.721 19.8473C115.647 20.9727 114.568 21.7382 113.44 21.7382C112.124 21.7382 111.154 20.9776 111.154 19.6555V11.738H107.496V19.7095C107.496 22.924 109.098 25.3166 112.424 25.3166C113.724 25.3166 114.816 24.7605 115.721 23.865V25.0384H119.383V11.738Z" fill="#250D53"/>
<mask id="mask0" mask-type="alpha" maskUnits="userSpaceOnUse" x="120" y="11" width="14" height="15">
<path fill-rule="evenodd" clip-rule="evenodd" d="M120.702 11.5138H133.714V25.2604H120.702V11.5138Z" fill="white"/>
</mask>
<g mask="url(#mask0)">
<path fill-rule="evenodd" clip-rule="evenodd" d="M124.461 16.784C124.821 15.4509 125.794 14.7203 127.221 14.7203C128.585 14.7203 129.509 15.4875 129.724 16.784H124.461ZM127.322 11.5138C123.424 11.5138 120.702 14.3402 120.702 18.3871C120.702 22.4983 123.737 25.2604 127.877 25.2604C130.084 25.2604 131.675 24.7423 132.788 24.1788L131.585 21.1739C130.505 21.5969 129.447 21.747 128.108 21.747C126.235 21.747 124.82 20.6563 124.503 19.581H133.714V18.4895C133.714 14.1616 131.129 11.5138 127.322 11.5138Z" fill="#250D53"/>
</g>
<path fill-rule="evenodd" clip-rule="evenodd" d="M87.7745 19.3576V19.6768C87.7745 21.0818 86.6008 22.1413 85.0443 22.1413C84.0141 22.1413 83.4231 21.7093 83.4231 20.956C83.4231 20.2933 83.9269 19.8536 84.8377 19.7182L87.7745 19.3576ZM85.5303 11.5499C82.4447 11.5499 80.2977 12.5111 80.2977 12.5111L81.2731 15.766C81.2731 15.766 83.2034 15.0022 85.5303 15.0022C86.798 15.0022 87.7743 15.4692 87.7743 16.3045V16.5879L87.2723 16.6416L84.1516 16.9191C81.3091 17.2272 79.6343 18.8444 79.6343 21.1351C79.6343 23.5853 81.4547 25.2966 84.0612 25.2966C85.5804 25.2966 86.9055 24.7019 87.7743 23.6479V25.0185H91.4367V16.965C91.4367 13.3556 89.3571 11.5499 85.5303 11.5499Z" fill="#250D53"/>
<path fill-rule="evenodd" clip-rule="evenodd" d="M69.7308 16.784C70.0904 15.4509 71.0632 14.7203 72.4904 14.7203C73.8547 14.7203 74.7783 15.4875 74.9939 16.784H69.7308ZM72.5913 11.5138C68.6939 11.5138 65.9718 14.3402 65.9718 18.3871C65.9718 22.4983 69.0066 25.2604 73.1468 25.2604C75.3537 25.2604 76.9448 24.7423 78.057 24.1788L76.8543 21.1739C75.7742 21.5969 74.7161 21.747 73.3778 21.747C71.5042 21.747 70.0897 20.6563 69.7727 19.581H78.984V18.4895C78.984 14.1616 76.3984 11.5138 72.5913 11.5138Z" fill="#250D53"/>
<path fill-rule="evenodd" clip-rule="evenodd" d="M14.2553 0V25H39.2021V14.2857H24.9468V0H14.2553Z" fill="#501CD2"/>
<path fill-rule="evenodd" clip-rule="evenodd" d="M0 25H10.6915V14.2857H0V25Z" fill="#01C3A2"/>
<path fill-rule="evenodd" clip-rule="evenodd" d="M14.2553 39.2857H24.9468V28.5714H14.2553V39.2857Z" fill="#01C3A2"/>
</svg>
