<svg width="103" height="103" viewBox="0 0 103 103" fill="none" xmlns="http://www.w3.org/2000/svg">
<path d="M51.5 0C41.3143 0 31.3573 3.02042 22.8882 8.67931C14.419 14.3382 7.81814 22.3814 3.92023 31.7918C0.0223142 41.2022 -0.997558 51.5571 0.989581 61.5471C2.97672 71.5372 7.88162 80.7136 15.084 87.916C22.2864 95.1184 31.4629 100.023 41.4529 102.01C51.4429 103.998 61.7978 102.978 71.2082 99.0798C80.6186 95.1819 88.6618 88.581 94.3207 80.1119C99.9796 71.6427 103 61.6857 103 51.5C102.984 37.8462 97.5531 24.7562 87.8985 15.1016C78.2438 5.44689 65.1538 0.0159016 51.5 0V0ZM81.2284 35.1917L51.8519 75.057C51.5051 75.5171 51.0701 75.9036 50.5723 76.1938C50.0745 76.484 49.5239 76.6722 48.9526 76.7473C48.3813 76.8224 47.8007 76.7829 47.2448 76.6312C46.6889 76.4796 46.1688 76.2187 45.7149 75.8638L24.7372 59.092C24.297 58.7397 23.9306 58.3042 23.6587 57.8103C23.3868 57.3165 23.2149 56.7739 23.1527 56.2136C23.0272 55.082 23.3563 53.9468 24.0677 53.0579C24.7791 52.1689 25.8145 51.599 26.9461 51.4734C28.0777 51.3479 29.2128 51.677 30.1018 52.3884L47.5946 66.3835L74.3188 30.1146C74.6405 29.6318 75.0568 29.2193 75.5425 28.9019C76.0281 28.5846 76.5731 28.369 77.1444 28.2682C77.7158 28.1674 78.3016 28.1834 78.8665 28.3154C79.4315 28.4474 79.9638 28.6926 80.4313 29.0361C80.8988 29.3797 81.2919 29.8144 81.5866 30.3141C81.8814 30.8138 82.0718 31.3681 82.1463 31.9434C82.2208 32.5188 82.1778 33.1033 82.0201 33.6616C81.8623 34.2199 81.593 34.7404 81.2284 35.1917Z" fill="#00805A"/>
</svg>
